<svg xmlns="http://www.w3.org/2000/svg" viewBox="0 0 32 32">
  <rect width="32" height="32" rx="5" fill="#160620"/>
  <g fill="#e8e2d0">
    <path d="M16 6c-5 0-8 3.4-8 8 0 2.7 1.3 4.3 2.6 5.3.5.4.8.9.8 1.6V23a2 2 0 0 0 2 2h.4v-2.3h1.1V25h2.2v-2.3h1.1V25h.4a2 2 0 0 0 2-2v-2.1c0-.7.3-1.2.8-1.6C22.7 18.3 24 16.7 24 14c0-4.6-3-8-8-8z"/>
  </g>
  <circle cx="12.4" cy="14.2" r="2.1" fill="#160620"/>
  <circle cx="19.6" cy="14.2" r="2.1" fill="#160620"/>
  <path d="M14.6 18.6h2.8l-1.4 2z" fill="#160620"/>
</svg>
