<svg viewBox="0 0 512 512" xmlns="http://www.w3.org/2000/svg" role="img" aria-label="Grima's Bane">
  <defs>
    <linearGradient id="bg-grimas-bane" x1="0" y1="0" x2="1" y2="1">
      <stop offset="0" stop-color="#160606"/>
      <stop offset="1" stop-color="#5A0D0D"/>
    </linearGradient>
  </defs>
  <rect width="512" height="512" rx="112" fill="url(#bg-grimas-bane)"/>
  <!-- Hooded cloak — the whisperer, silenced -->
  <path d="M256 96
           C320 96 360 150 376 220
           C392 292 410 372 420 420
           C388 408 352 414 320 420
           C296 424 276 422 256 416
           C236 422 216 424 192 420
           C160 414 124 408 92 420
           C102 372 120 292 136 220
           C152 150 192 96 256 96 Z"
        fill="#6b6e76"/>
  <!-- Black void face under the hood -->
  <path d="M256 168
           C300 174 306 232 292 272
           C282 298 268 316 256 326
           C244 316 230 298 220 272
           C206 232 212 174 256 168 Z"
        fill="#0a0303"/>
  <!-- Two dead-red X eyes -->
  <g stroke="#e22222" stroke-width="14" stroke-linecap="round">
    <line x1="222" y1="220" x2="248" y2="248"/>
    <line x1="248" y1="220" x2="222" y2="248"/>
    <line x1="264" y1="220" x2="290" y2="248"/>
    <line x1="290" y1="220" x2="264" y2="248"/>
  </g>
</svg>
