<svg viewBox="0 0 512 512" xmlns="http://www.w3.org/2000/svg" role="img" aria-label="TTRPG Character Generator">
  <defs>
    <linearGradient id="bg-ttrpg" x1="0" y1="0" x2="1" y2="1">
      <stop offset="0" stop-color="#2A1B50"/>
      <stop offset="1" stop-color="#E8A540"/>
    </linearGradient>
  </defs>
  <rect width="512" height="512" rx="112" fill="url(#bg-ttrpg)"/>
  <g transform="translate(256 256)" fill="none" stroke="#FFF2C7" stroke-width="14" stroke-linecap="round" stroke-linejoin="round">
    <line x1="0" y1="-156" x2="0" y2="-122"/>
    <line x1="110" y1="-110" x2="86" y2="-86"/>
    <line x1="156" y1="0" x2="122" y2="0"/>
    <line x1="110" y1="110" x2="86" y2="86"/>
    <line x1="0" y1="156" x2="0" y2="122"/>
    <line x1="-110" y1="110" x2="-86" y2="86"/>
    <line x1="-156" y1="0" x2="-122" y2="0"/>
    <line x1="-110" y1="-110" x2="-86" y2="-86"/>
    <polygon points="0,-100 26,-32 100,-32 40,12 62,86 0,42 -62,86 -40,12 -100,-32 -26,-32"/>
  </g>
</svg>
